<?xml version="1.0" encoding="UTF-8" standalone="no"?>
<!DOCTYPE svg PUBLIC "-//W3C//DTD SVG 1.0//EN" "http://www.w3.org/TR/2001/PR-SVG-20010719/DTD/svg10.dtd">
<svg width="47cm" height="40cm" viewBox="130 -61 923 782" xmlns="http://www.w3.org/2000/svg" xmlns:xlink="http://www.w3.org/1999/xlink">
  <g>
    <ellipse style="fill: #ffffff" cx="166.668" cy="47.925" rx="6" ry="6"/>
    <ellipse style="fill: none; fill-opacity:0; stroke-width: 2; stroke: #000000" cx="166.668" cy="47.925" rx="6" ry="6"/>
    <line style="fill: none; fill-opacity:0; stroke-width: 2; stroke: #000000" x1="142.668" y1="59.925" x2="190.668" y2="59.925"/>
    <line style="fill: none; fill-opacity:0; stroke-width: 2; stroke: #000000" x1="166.668" y1="53.925" x2="166.668" y2="83.925"/>
    <line style="fill: none; fill-opacity:0; stroke-width: 2; stroke: #000000" x1="166.668" y1="83.925" x2="142.668" y2="109.925"/>
    <line style="fill: none; fill-opacity:0; stroke-width: 2; stroke: #000000" x1="166.668" y1="83.925" x2="190.668" y2="109.925"/>
    <text font-size="12.8" style="fill: #000000;text-anchor:middle;font-family:sans-serif;font-style:normal;font-weight:normal" x="166.668" y="133.825">
      <tspan x="166.668" y="133.825">Empresario</tspan>
    </text>
  </g>
  <g>
    <ellipse style="fill: #ffffff" cx="165.419" cy="248.092" rx="6" ry="6"/>
    <ellipse style="fill: none; fill-opacity:0; stroke-width: 2; stroke: #000000" cx="165.419" cy="248.092" rx="6" ry="6"/>
    <line style="fill: none; fill-opacity:0; stroke-width: 2; stroke: #000000" x1="141.419" y1="260.092" x2="189.419" y2="260.092"/>
    <line style="fill: none; fill-opacity:0; stroke-width: 2; stroke: #000000" x1="165.419" y1="254.092" x2="165.419" y2="284.092"/>
    <line style="fill: none; fill-opacity:0; stroke-width: 2; stroke: #000000" x1="165.419" y1="284.092" x2="141.419" y2="310.092"/>
    <line style="fill: none; fill-opacity:0; stroke-width: 2; stroke: #000000" x1="165.419" y1="284.092" x2="189.419" y2="310.092"/>
    <text font-size="12.8" style="fill: #000000;text-anchor:middle;font-family:sans-serif;font-style:normal;font-weight:normal" x="165.419" y="333.992">
      <tspan x="165.419" y="333.992">Turista</tspan>
    </text>
  </g>
  <g>
    <ellipse style="fill: #ffffff" cx="1013.16" cy="81.7484" rx="6" ry="6"/>
    <ellipse style="fill: none; fill-opacity:0; stroke-width: 2; stroke: #000000" cx="1013.16" cy="81.7484" rx="6" ry="6"/>
    <line style="fill: none; fill-opacity:0; stroke-width: 2; stroke: #000000" x1="989.158" y1="93.7484" x2="1037.16" y2="93.7484"/>
    <line style="fill: none; fill-opacity:0; stroke-width: 2; stroke: #000000" x1="1013.16" y1="87.7484" x2="1013.16" y2="117.748"/>
    <line style="fill: none; fill-opacity:0; stroke-width: 2; stroke: #000000" x1="1013.16" y1="117.748" x2="989.158" y2="143.748"/>
    <line style="fill: none; fill-opacity:0; stroke-width: 2; stroke: #000000" x1="1013.16" y1="117.748" x2="1037.16" y2="143.748"/>
    <text font-size="12.8" style="fill: #000000;text-anchor:middle;font-family:sans-serif;font-style:normal;font-weight:normal" x="1013.16" y="167.648">
      <tspan x="1013.16" y="167.648">Sernatur</tspan>
    </text>
  </g>
  <g>
    <ellipse style="fill: #ffffff" cx="1011.24" cy="251.242" rx="6" ry="6"/>
    <ellipse style="fill: none; fill-opacity:0; stroke-width: 2; stroke: #000000" cx="1011.24" cy="251.242" rx="6" ry="6"/>
    <line style="fill: none; fill-opacity:0; stroke-width: 2; stroke: #000000" x1="987.236" y1="263.242" x2="1035.24" y2="263.242"/>
    <line style="fill: none; fill-opacity:0; stroke-width: 2; stroke: #000000" x1="1011.24" y1="257.242" x2="1011.24" y2="287.242"/>
    <line style="fill: none; fill-opacity:0; stroke-width: 2; stroke: #000000" x1="1011.24" y1="287.242" x2="987.236" y2="313.242"/>
    <line style="fill: none; fill-opacity:0; stroke-width: 2; stroke: #000000" x1="1011.24" y1="287.242" x2="1035.24" y2="313.242"/>
    <text font-size="12.8" style="fill: #000000;text-anchor:middle;font-family:sans-serif;font-style:normal;font-weight:normal" x="1011.24" y="337.142">
      <tspan x="1011.24" y="337.142">Google Maps</tspan>
    </text>
  </g>
  <g>
    <ellipse style="fill: #ffffff" cx="460.873" cy="-5.86013" rx="95.825" ry="31.9417"/>
    <ellipse style="fill: none; fill-opacity:0; stroke-width: 2; stroke: #000000" cx="460.873" cy="-5.86013" rx="95.825" ry="31.9417"/>
    <text font-size="12.8" style="fill: #000000;text-anchor:middle;font-family:sans-serif;font-style:normal;font-weight:normal" x="460.873" y="-1.96013">
      <tspan x="460.873" y="-1.96013">Actualizar Información</tspan>
    </text>
  </g>
  <g>
    <ellipse style="fill: #ffffff" cx="769.595" cy="-5.68913" rx="87.575" ry="29.1917"/>
    <ellipse style="fill: none; fill-opacity:0; stroke-width: 2; stroke: #000000" cx="769.595" cy="-5.68913" rx="87.575" ry="29.1917"/>
    <text font-size="12.8" style="fill: #000000;text-anchor:middle;font-family:sans-serif;font-style:normal;font-weight:normal" x="769.595" y="-1.78913">
      <tspan x="769.595" y="-1.78913">Extraer Información</tspan>
    </text>
  </g>
  <g>
    <ellipse style="fill: #ffffff" cx="465.197" cy="676.373" rx="72.525" ry="24.175"/>
    <ellipse style="fill: none; fill-opacity:0; stroke-width: 2; stroke: #000000" cx="465.197" cy="676.373" rx="72.525" ry="24.175"/>
    <text font-size="12.8" style="fill: #000000;text-anchor:middle;font-family:sans-serif;font-style:normal;font-weight:normal" x="465.197" y="680.273">
      <tspan x="465.197" y="680.273">Crear Itinerario</tspan>
    </text>
  </g>
  <g>
    <ellipse style="fill: #ffffff" cx="456.077" cy="470.922" rx="76.925" ry="25.6417"/>
    <ellipse style="fill: none; fill-opacity:0; stroke-width: 2; stroke: #000000" cx="456.077" cy="470.922" rx="76.925" ry="25.6417"/>
    <text font-size="12.8" style="fill: #000000;text-anchor:middle;font-family:sans-serif;font-style:normal;font-weight:normal" x="456.077" y="474.822">
      <tspan x="456.077" y="474.822">Buscar Itinerario</tspan>
    </text>
  </g>
  <g>
    <ellipse style="fill: #ffffff" cx="738.111" cy="528.302" rx="85.825" ry="28.6083"/>
    <ellipse style="fill: none; fill-opacity:0; stroke-width: 2; stroke: #000000" cx="738.111" cy="528.302" rx="85.825" ry="28.6083"/>
    <text font-size="12.8" style="fill: #000000;text-anchor:middle;font-family:sans-serif;font-style:normal;font-weight:normal" x="738.111" y="532.202">
      <tspan x="738.111" y="532.202">Visualizar Itinerario</tspan>
    </text>
  </g>
  <g>
    <ellipse style="fill: #ffffff" cx="498.585" cy="583.869" rx="87.225" ry="29.075"/>
    <ellipse style="fill: none; fill-opacity:0; stroke-width: 2; stroke: #000000" cx="498.585" cy="583.869" rx="87.225" ry="29.075"/>
    <text font-size="12.8" style="fill: #000000;text-anchor:middle;font-family:sans-serif;font-style:normal;font-weight:normal" x="498.585" y="587.769">
      <tspan x="498.585" y="587.769">Compartir Itinerario</tspan>
    </text>
  </g>
  <g>
    <ellipse style="fill: #ffffff" cx="432.014" cy="78.21" rx="84.6" ry="28.2"/>
    <ellipse style="fill: none; fill-opacity:0; stroke-width: 2; stroke: #000000" cx="432.014" cy="78.21" rx="84.6" ry="28.2"/>
    <text font-size="12.8" style="fill: #000000;text-anchor:middle;font-family:sans-serif;font-style:normal;font-weight:normal" x="432.014" y="82.11">
      <tspan x="432.014" y="82.11">Ver Mapa Temático</tspan>
    </text>
  </g>
  <g>
    <ellipse style="fill: #ffffff" cx="456.033" cy="216.38" rx="105.125" ry="35.0417"/>
    <ellipse style="fill: none; fill-opacity:0; stroke-width: 2; stroke: #000000" cx="456.033" cy="216.38" rx="105.125" ry="35.0417"/>
    <text font-size="12.8" style="fill: #000000;text-anchor:middle;font-family:sans-serif;font-style:normal;font-weight:normal" x="456.033" y="212.28">
      <tspan x="456.033" y="212.28">Buscar Lugares o </tspan>
      <tspan x="456.033" y="228.28">Servicios</tspan>
    </text>
  </g>
  <g>
    <ellipse style="fill: #ffffff" cx="796.555" cy="314.912" rx="75.625" ry="25.2083"/>
    <ellipse style="fill: none; fill-opacity:0; stroke-width: 2; stroke: #000000" cx="796.555" cy="314.912" rx="75.625" ry="25.2083"/>
    <text font-size="12.8" style="fill: #000000;text-anchor:middle;font-family:sans-serif;font-style:normal;font-weight:normal" x="796.555" y="318.812">
      <tspan x="796.555" y="318.812">Evaluar Servicio</tspan>
    </text>
  </g>
  <g>
    <ellipse style="fill: #ffffff" cx="758.657" cy="96.4602" rx="112.575" ry="37.525"/>
    <ellipse style="fill: none; fill-opacity:0; stroke-width: 2; stroke: #000000" cx="758.657" cy="96.4602" rx="112.575" ry="37.525"/>
    <text font-size="12.8" style="fill: #000000;text-anchor:middle;font-family:sans-serif;font-style:normal;font-weight:normal" x="758.657" y="92.3602">
      <tspan x="758.657" y="92.3602">Proveer Información</tspan>
      <tspan x="758.657" y="108.36">Geográfica</tspan>
    </text>
  </g>
  <g>
    <ellipse style="fill: #ffffff" cx="696.026" cy="194.655" rx="66.75" ry="22.25"/>
    <ellipse style="fill: none; fill-opacity:0; stroke-width: 2; stroke: #000000" cx="696.026" cy="194.655" rx="66.75" ry="22.25"/>
    <text font-size="12.8" style="fill: #000000;text-anchor:middle;font-family:sans-serif;font-style:normal;font-weight:normal" x="696.026" y="198.555">
      <tspan x="696.026" y="198.555">Generar Ruta</tspan>
    </text>
  </g>
  <g>
    <ellipse style="fill: #ffffff" cx="473.073" cy="349.735" rx="118.725" ry="39.575"/>
    <ellipse style="fill: none; fill-opacity:0; stroke-width: 2; stroke: #000000" cx="473.073" cy="349.735" rx="118.725" ry="39.575"/>
    <text font-size="12.8" style="fill: #000000;text-anchor:middle;font-family:sans-serif;font-style:normal;font-weight:normal" x="473.073" y="345.635">
      <tspan x="473.073" y="345.635">Visualizar información</tspan>
      <tspan x="473.073" y="361.635">de Lugar</tspan>
    </text>
  </g>
  <g>
    <ellipse style="fill: #ffffff" cx="790.246" cy="380.565" rx="81.85" ry="27.2833"/>
    <ellipse style="fill: none; fill-opacity:0; stroke-width: 2; stroke: #000000" cx="790.246" cy="380.565" rx="81.85" ry="27.2833"/>
    <text font-size="12.8" style="fill: #000000;text-anchor:middle;font-family:sans-serif;font-style:normal;font-weight:normal" x="790.246" y="384.465">
      <tspan x="790.246" y="384.465">Añadir a Itinerario</tspan>
    </text>
  </g>
  <g>
    <path style="fill: none; fill-opacity:0; stroke-width: 2; stroke-dasharray: 6; stroke: #000000" d="M 543.796,613.934 A 145.922,145.922 0 0 0 721.21,561.632"/>
    <polyline style="fill: none; fill-opacity:0; stroke-width: 2; stroke: #000000" points="721.314,570.905 722.468,559.784 712.879,565.533 "/>
  </g>
  <path style="fill: none; fill-opacity:0; stroke-width: 2; stroke: #000000" d="M 170.324,339.099 A 419.308,419.308 0 0 0 400.591,651.199"/>
  <path style="fill: none; fill-opacity:0; stroke-width: 2; stroke: #000000" d="M 191.424,305.634 A 1297.68,1297.68 0 0 0 402.409,444.276"/>
  <g>
    <line style="fill: none; fill-opacity:0; stroke-width: 2; stroke: #000000" x1="166.325" y1="138.915" x2="165.838" y2="216.866"/>
    <polygon style="fill: #ffffff" points="160.839,216.835 165.776,226.866 170.838,216.898 "/>
    <polygon style="fill: none; fill-opacity:0; stroke-width: 2; stroke: #000000" points="160.839,216.835 165.776,226.866 170.838,216.898 "/>
  </g>
  <path style="fill: none; fill-opacity:0; stroke-width: 2; stroke: #000000" d="M 364.039,-17.7947 A 272.985,272.985 0 0 0 203.01,46.5734"/>
  <path style="fill: none; fill-opacity:0; stroke-width: 2; stroke: #000000" d="M 346.413,98.0359 A 311.325,311.325 0 0 0 191.274,229.084"/>
  <path style="fill: none; fill-opacity:0; stroke-width: 2; stroke: #000000" d="M 349.925,228.249 A 822.105,822.105 0 0 0 191.407,273.279"/>
  <path style="fill: none; fill-opacity:0; stroke-width: 2; stroke: #000000" d="M 191.401,291.199 A 2534.34,2534.34 0 0 0 353.359,328.928"/>
  <g>
    <path style="fill: none; fill-opacity:0; stroke-width: 2; stroke-dasharray: 6; stroke: #000000" d="M 669.216,498.704 A 527.724,527.724 0 0 0 538.18,471.119"/>
    <polyline style="fill: none; fill-opacity:0; stroke-width: 2; stroke: #000000" points="546.284,466.67 535.951,470.94 545.567,476.644 "/>
  </g>
  <g>
    <path style="fill: none; fill-opacity:0; stroke-width: 2; stroke-dasharray: 6; stroke: #000000" d="M 538.027,392.226 A 272.126,272.126 0 0 0 721.914,408.839"/>
    <polyline style="fill: none; fill-opacity:0; stroke-width: 2; stroke: #000000" points="547.18,391.158 536,391.281 542.807,400.151 "/>
  </g>
  <g>
    <path style="fill: none; fill-opacity:0; stroke-width: 2; stroke-dasharray: 6; stroke: #000000" d="M 719.934,308.758 A 671.573,671.573 0 0 0 597.205,317.216"/>
    <polyline style="fill: none; fill-opacity:0; stroke-width: 2; stroke: #000000" points="604.026,310.979 594.998,317.573 605.691,320.839 "/>
  </g>
  <g>
    <path style="fill: none; fill-opacity:0; stroke-width: 2; stroke-dasharray: 6; stroke: #000000" d="M 645.364,171.401 A 195.617,195.617 0 0 0 514.372,178.559"/>
    <polyline style="fill: none; fill-opacity:0; stroke-width: 2; stroke: #000000" points="519.408,170.783 512.31,179.422 523.48,179.917 "/>
  </g>
  <g>
    <path style="fill: none; fill-opacity:0; stroke-width: 2; stroke-dasharray: 6; stroke: #000000" d="M 709.073,217.424 A 73.7967,73.7967 0 0 0 832.544,138.966"/>
    <polyline style="fill: none; fill-opacity:0; stroke-width: 2; stroke: #000000" points="840.748,143.378 831.607,136.94 831.942,148.116 "/>
  </g>
  <g>
    <path style="fill: none; fill-opacity:0; stroke-width: 2; stroke-dasharray: 6; stroke: #000000" d="M 517.604,98.6382 A 678.934,678.934 0 0 0 640.618,108.308"/>
    <polyline style="fill: none; fill-opacity:0; stroke-width: 2; stroke: #000000" points="632.951,113.47 642.854,108.28 632.76,103.472 "/>
  </g>
  <g>
    <path style="fill: none; fill-opacity:0; stroke-width: 2; stroke-dasharray: 6; stroke: #000000" d="M 423.957,107.384 A 132.924,132.924 0 0 0 431.426,176.215"/>
    <polyline style="fill: none; fill-opacity:0; stroke-width: 2; stroke: #000000" points="423.7,171.078 432.237,178.298 432.891,167.136 "/>
  </g>
  <g>
    <path style="fill: none; fill-opacity:0; stroke-width: 2; stroke-dasharray: 6; stroke: #000000" d="M 484.689,309.165 A 122.96,122.96 0 0 0 478.853,256.565"/>
    <polyline style="fill: none; fill-opacity:0; stroke-width: 2; stroke: #000000" points="486.365,262.016 478.134,254.449 477.019,265.574 "/>
  </g>
  <path style="fill: none; fill-opacity:0; stroke-width: 2; stroke: #000000" d="M 985.492,93.4212 A 475.995,475.995 0 0 0 858.169,19.3001"/>
  <path style="fill: none; fill-opacity:0; stroke-width: 2; stroke: #000000" d="M 969.756,240.123 A 636.208,636.208 0 0 0 835.766,134.98"/>
  <text font-size="12.8" style="fill: #000000;text-anchor:start;font-family:sans-serif;font-style:normal;font-weight:normal" x="540.112" y="96.0166">
    <tspan x="540.112" y="96.0166">&lt;&lt;include&gt;&gt;</tspan>
  </text>
  <text font-size="12.8" style="fill: #000000;text-anchor:start;font-family:sans-serif;font-style:normal;font-weight:normal" x="727.73" y="260.322">
    <tspan x="727.73" y="260.322">&lt;&lt;include&gt;&gt;</tspan>
  </text>
  <text font-size="12.8" style="fill: #000000;text-anchor:start;font-family:sans-serif;font-style:normal;font-weight:normal" x="552.032" y="155.622">
    <tspan x="552.032" y="155.622">&lt;&lt;extend&gt;&gt;</tspan>
  </text>
  <text font-size="12.8" style="fill: #000000;text-anchor:start;font-family:sans-serif;font-style:normal;font-weight:normal" x="615.856" y="307.09">
    <tspan x="615.856" y="307.09">&lt;&lt;extend&gt;&gt;</tspan>
  </text>
  <text font-size="12.8" style="fill: #000000;text-anchor:start;font-family:sans-serif;font-style:normal;font-weight:normal" x="596.966" y="410.548">
    <tspan x="596.966" y="410.548">&lt;&lt;extend&gt;&gt;</tspan>
  </text>
  <text font-size="12.8" style="fill: #000000;text-anchor:start;font-family:sans-serif;font-style:normal;font-weight:normal" x="572.024" y="643.078">
    <tspan x="572.024" y="643.078">&lt;&lt;extend&gt;&gt;</tspan>
  </text>
  <text font-size="12.8" style="fill: #000000;text-anchor:start;font-family:sans-serif;font-style:normal;font-weight:normal" x="571.656" y="472.7">
    <tspan x="571.656" y="472.7">&lt;&lt;extend&gt;&gt;</tspan>
  </text>
  <text font-size="12.8" style="fill: #000000;text-anchor:start;font-family:sans-serif;font-style:normal;font-weight:normal" x="487.842" y="289.482">
    <tspan x="487.842" y="289.482">&lt;&lt;extend&gt;&gt;</tspan>
  </text>
  <text font-size="12.8" style="fill: #000000;text-anchor:start;font-family:sans-serif;font-style:normal;font-weight:normal" x="426.036" y="146.614">
    <tspan x="426.036" y="146.614">&lt;&lt;extend&gt;&gt;</tspan>
  </text>
  <rect style="fill: none; fill-opacity:0; stroke-width: 2; stroke: #000000" x="307.272" y="-59.7488" width="613.767" height="779.23"/>
</svg>
